<svg width="235" height="47" viewBox="0 0 235 47" fill="none" xmlns="http://www.w3.org/2000/svg">
<g clip-path="url(#clip0_7_4189)">
<mask id="mask0_7_4189" style="mask-type:luminance" maskUnits="userSpaceOnUse" x="0" y="0" width="235" height="47">
<path d="M234.894 0.492432H0.104065V46.4369H234.894V0.492432Z" fill="white"/>
</mask>
<g mask="url(#mask0_7_4189)">
<path d="M55.6077 26.102V26.03C55.6077 18.871 61.368 13.0664 69.0479 13.0664C76.7279 13.0664 82.4164 18.7999 82.4164 25.9589V26.0308C82.4164 33.1883 76.6561 38.9945 68.9761 38.9945C61.2962 38.9945 55.6077 33.2594 55.6077 26.102ZM75.3758 26.102V26.03C75.3758 22.433 72.7818 19.2987 68.9761 19.2987C65.1705 19.2987 62.6826 22.3617 62.6826 25.9589V26.0308C62.6826 29.628 65.279 32.7621 69.0472 32.7621C72.8153 32.7621 75.3758 29.6991 75.3758 26.102Z" fill="black"/>
<path d="M85.1554 26.102V26.03C85.1554 18.7647 90.7378 13.0664 98.2748 13.0664C103.359 13.0664 106.631 15.2028 108.835 18.2658L103.644 22.2906C102.22 20.5109 100.586 19.3707 98.2046 19.3707C94.7198 19.3707 92.267 22.3274 92.267 25.9589V26.0308C92.267 29.7687 94.7198 32.691 98.2046 32.691C100.799 32.691 102.329 31.4797 103.821 29.6631L109.012 33.3665C106.665 36.6079 103.501 38.9954 97.9898 38.9954C90.8798 38.9954 85.1554 33.5456 85.1554 26.102Z" fill="black"/>
<path d="M118.04 19.62H110.572V13.5659H132.403V19.62H124.935V38.4946H118.04V19.62Z" fill="black"/>
<path d="M133.505 26.102V26.03C133.505 18.871 139.265 13.0664 146.945 13.0664C154.625 13.0664 160.314 18.7999 160.314 25.9589V26.0308C160.314 33.1883 154.553 38.9945 146.873 38.9945C139.193 38.9945 133.505 33.2594 133.505 26.102ZM153.273 26.102V26.03C153.273 22.433 150.679 19.2987 146.873 19.2987C143.068 19.2987 140.58 22.3617 140.58 25.9589V26.0308C140.58 29.628 143.177 32.7621 146.944 32.7621C150.712 32.7621 153.273 29.6991 153.273 26.102Z" fill="black"/>
<path d="M163.905 13.5649H174.571C180.864 13.5649 184.917 16.8063 184.917 22.3263V22.3959C184.917 28.2725 180.403 31.3723 174.216 31.3723H170.803V38.4945H163.905V13.5649ZM174.073 25.9578C176.526 25.9578 178.019 24.6745 178.019 22.7164V22.6445C178.019 20.5081 176.526 19.3689 174.037 19.3689H170.802V25.957H174.072L174.073 25.9578Z" fill="black"/>
<path d="M187.513 27.5601V13.5649H194.516V27.4185C194.516 31.0156 196.328 32.7243 199.102 32.7243C201.876 32.7243 203.687 31.0852 203.687 27.5969V13.5649H210.691V27.3818C210.691 35.4307 206.106 38.9566 199.03 38.9566C191.955 38.9566 187.513 35.3595 187.513 27.5601Z" fill="black"/>
<path d="M212.898 34.7909L216.737 30.1952C219.19 32.1557 221.928 33.1863 224.808 33.1863C226.656 33.1863 227.65 32.5459 227.65 31.4777V31.4057C227.65 30.3727 226.833 29.8035 223.456 29.0199C218.158 27.8086 214.07 26.3126 214.07 21.1853V21.1133C214.07 16.4832 217.731 13.1355 223.705 13.1355C227.936 13.1355 231.242 14.2749 233.944 16.448L230.496 21.326C228.22 19.7237 225.731 18.869 223.527 18.869C221.856 18.869 221.038 19.5814 221.038 20.4712V20.5432C221.038 21.6826 221.89 22.1822 225.34 22.9658C231.064 24.2115 234.62 26.0632 234.62 30.7285V30.8004C234.62 35.8935 230.601 38.9213 224.558 38.9213C220.15 38.9213 215.955 37.5317 212.896 34.7901L212.898 34.7909Z" fill="black"/>
<path d="M230.027 6.81115H228.891V10.4506H228.171V6.81115H227.036V6.12915H230.026V6.81115H230.027ZM232.848 9.19217L233.857 6.12915H234.894V10.4506H234.218V7.07261H234.199L233.091 10.4506H232.587L231.48 7.07261H231.462V10.4506H230.786V6.12915H231.831L232.849 9.19217H232.848Z" fill="black"/>
<path fill-rule="evenodd" clip-rule="evenodd" d="M39.7313 37.6244C40.5391 37.6244 41.3412 37.5357 42.1227 37.3526C42.5552 37.2535 42.9759 37.1232 43.3934 36.9721C44.5754 36.5387 45.6689 35.8919 46.6227 35.0779C47.2636 34.5303 48.2261 34.6086 48.7682 35.2507L48.8671 35.365C49.409 36.0014 49.3308 36.9664 48.6955 37.5094C47.4504 38.5688 46.0289 39.4027 44.4972 39.972C42.9719 40.5356 41.362 40.8226 39.7313 40.8226C36.0494 40.8226 32.5439 39.3507 29.9451 36.7474C27.3407 34.1385 25.8712 30.6278 25.8712 26.9386C25.8712 26.0983 26.5593 25.4147 27.3925 25.4147H27.5434C28.3822 25.4147 29.0638 26.0983 29.0638 26.9386C29.0638 27.3457 29.0903 27.7526 29.1374 28.154C29.4127 30.5438 30.4806 32.7665 32.2007 34.4879C34.2056 36.4915 36.8931 37.6244 39.7313 37.6244ZM19.7469 20.5376C19.7469 19.7556 20.3831 19.1184 21.1589 19.1184H22.2683C23.0505 19.1184 23.685 19.7556 23.685 20.5376C23.685 21.3195 23.0505 21.9567 22.2683 21.9567H21.1589C20.3831 21.9567 19.7469 21.3156 19.7469 20.5376ZM25.4921 20.5376C25.4921 19.7556 26.1283 19.1184 26.9097 19.1184H28.0135C28.795 19.1184 29.4302 19.7556 29.4302 20.5376C29.4302 21.3195 28.795 21.9567 28.0135 21.9567H26.9097C26.1274 21.9567 25.4921 21.3156 25.4921 20.5376ZM9.60068 37.6244C12.4341 37.6244 15.1271 36.4923 17.1273 34.4887C17.4506 34.1657 17.7523 33.8267 18.0285 33.466C18.6015 32.7257 19.0709 31.9165 19.43 31.061C19.9768 29.7723 20.2633 28.3738 20.2633 26.9395C20.2633 26.0992 20.945 25.4156 21.7838 25.4156H21.9354C22.7743 25.4156 23.456 26.0992 23.456 26.9395C23.456 30.6278 21.9865 34.1393 19.3885 36.7481C16.7841 39.3515 13.2842 40.8235 9.60148 40.8235C7.97163 40.8235 6.35695 40.5364 4.83006 39.9727C3.29999 39.4034 1.87846 38.5695 0.63731 37.5101C-0.00201801 36.9672 -0.0754495 36.0022 0.465705 35.3658L0.559889 35.2515C1.10184 34.6094 2.07081 34.5311 2.70535 35.0788C3.66395 35.8926 4.75822 36.5402 5.93552 36.9729C7.10643 37.4061 8.34597 37.6244 9.60068 37.6244ZM24.6636 3.68578C22.0177 3.68578 19.5019 4.74516 17.6326 6.61768C15.7633 8.49659 14.705 11.0111 14.705 13.6664C14.705 14.8409 15.179 15.6076 15.7521 16.5831C17.2574 19.108 17.8561 21.0021 17.8561 24.002V26.9395C17.8561 29.1357 16.9805 31.2282 15.4281 32.7824C13.8812 34.3376 11.7932 35.2083 9.59988 35.2083C7.40653 35.2083 5.31454 34.3368 3.76691 32.7824C2.21448 31.2282 1.34049 29.1357 1.34049 26.9395C1.34049 26.0992 2.02213 25.4156 2.86099 25.4156H3.01184C3.84991 25.4156 4.53235 26.0992 4.53235 26.9395C4.53235 28.2907 5.06871 29.5691 6.02251 30.5238C6.97393 31.4785 8.25099 32.0158 9.59988 32.0158C10.9488 32.0158 12.2202 31.4785 13.1733 30.5238C14.1262 29.5691 14.6634 28.2907 14.6634 26.9395V24.002C14.6634 21.5818 14.2157 20.241 13.012 18.2158C12.1109 16.6974 11.5123 15.5085 11.5123 13.6664C11.5123 10.1652 12.9019 6.83195 15.3722 4.35818C17.8457 1.88522 21.1692 0.492432 24.6636 0.492432C28.158 0.492432 31.4863 1.88522 33.955 4.35818C36.4237 6.83195 37.8149 10.1652 37.8149 13.6664C37.8149 15.5085 37.2211 16.6974 36.32 18.2158C35.1164 20.2402 34.6638 21.5809 34.6638 24.002V26.9395C34.6638 28.2907 35.2058 29.5691 36.1539 30.5238C37.107 31.4785 38.3824 32.0158 39.7313 32.0158C41.0803 32.0158 42.3565 31.4785 43.3047 30.5238C44.2577 29.5691 44.7941 28.2907 44.7941 26.9395C44.7941 26.0992 45.4765 25.4156 46.3154 25.4156H46.4663C47.3043 25.4156 47.9867 26.0992 47.9867 26.9395C47.9867 29.1357 47.1112 31.2282 45.5651 32.7824C44.0127 34.3376 41.9247 35.2083 39.7313 35.2083L39.0553 35.1819C37.1117 35.0204 35.2896 34.1752 33.8991 32.7817C33.18 32.0613 32.6125 31.2322 32.2014 30.3247C31.7274 29.2701 31.4768 28.118 31.4768 26.9386V24.0012C31.4768 21.0013 32.0754 19.1073 33.5759 16.5823C34.1537 15.6061 34.6224 14.8401 34.6224 13.6656C34.6224 11.0103 33.5711 8.49579 31.6954 6.61688C29.8253 4.74436 27.3151 3.68578 24.6636 3.68578ZM28.9761 13.656C28.9761 12.5086 28.5067 11.4237 27.6998 10.6145C26.8921 9.80622 25.809 9.34728 24.6628 9.34728C23.8239 9.34728 23.1415 8.66369 23.1415 7.82338V7.67226C23.1415 6.83275 23.8239 6.14915 24.6628 6.14915C26.6511 6.14915 28.5483 6.94788 29.9546 8.35107C31.361 9.75985 32.1624 11.6531 32.1671 13.6463C32.1671 14.0629 32.0218 14.4283 31.725 14.7258C31.428 15.0232 31.0689 15.1744 30.6458 15.1744H30.4958C29.6617 15.1744 28.9809 14.4908 28.9761 13.656ZM24.6636 34.9644C25.1896 34.9429 25.71 35.1939 26.007 35.668C27.4859 37.9843 29.5332 39.9047 31.9341 41.2352C34.3301 42.5552 36.9968 43.2388 39.7305 43.2388C40.5694 43.2388 41.2518 43.9224 41.2518 44.7619V44.9139C41.2518 45.7533 40.5686 46.4369 39.7305 46.4369C36.4596 46.4369 33.2622 45.6126 30.3977 44.0311C28.1947 42.8206 26.2464 41.188 24.6636 39.2467C23.08 41.188 21.1325 42.8206 18.9335 44.0311C16.069 45.6126 12.8668 46.4369 9.59988 46.4369C8.76181 46.4369 8.07938 45.7533 8.07938 44.9139V44.7619C8.07938 43.9216 8.76181 43.2388 9.59988 43.2388C12.3296 43.2388 14.9963 42.5552 17.3916 41.2352C19.798 39.9047 21.8397 37.9843 23.3187 35.668C23.6204 35.1931 24.1425 34.9429 24.6636 34.9644Z" fill="#00FF00"/>
</g>
</g>
<defs>
<clipPath id="clip0_7_4189">
<rect width="234.79" height="46.0141" fill="white" transform="translate(0.105469 0.493164)"/>
</clipPath>
</defs>
</svg>
