<svg width="19" height="19" viewBox="0 0 19 19" fill="none" xmlns="http://www.w3.org/2000/svg">
<g clip-path="url(#clip0_1_1851)">
<rect width="19" height="19" fill="white"/>
<path d="M9.5 19C14.7467 19 19 14.7467 19 9.5C19 4.25329 14.7467 0 9.5 0C4.25329 0 0 4.25329 0 9.5C0 14.7467 4.25329 19 9.5 19Z" fill="#00B512"/>
<path d="M9.5 0V19C14.7467 19 19 14.7467 19 9.5C19 4.25329 14.7467 0 9.5 0Z" fill="#00B512"/>
<path d="M8.14382 13.6536L4.03125 9.54096L5.47065 8.10156L8.14382 10.7747L13.192 5.72656L14.6314 7.16596L8.14382 13.6536Z" fill="white"/>
<path d="M9.5 12.2966L14.6304 7.16614L13.191 5.72675L9.5 9.41772V12.2966Z" fill="white"/>
</g>
<defs>
<clipPath id="clip0_1_1851">
<rect width="19" height="19" fill="white"/>
</clipPath>
</defs>
</svg>
