<svg width="20" height="20" viewBox="0 0 20 20" fill="none" xmlns="http://www.w3.org/2000/svg">
<path d="M7.89319 12.7334C7.73486 12.7334 7.57652 12.6751 7.45152 12.5501C6.76819 11.8667 6.39319 10.9584 6.39319 10.0001C6.39319 8.00839 8.00985 6.39172 10.0015 6.39172C10.9599 6.39172 11.8682 6.76672 12.5515 7.45006C12.6682 7.56672 12.7349 7.72506 12.7349 7.89172C12.7349 8.05839 12.6682 8.21672 12.5515 8.33339L8.33486 12.5501C8.20986 12.6751 8.05152 12.7334 7.89319 12.7334ZM10.0015 7.64172C8.70152 7.64172 7.64319 8.70006 7.64319 10.0001C7.64319 10.4167 7.75152 10.8167 7.95152 11.1667L11.1682 7.95006C10.8182 7.75006 10.4182 7.64172 10.0015 7.64172Z" fill="#94A3B8"/>
<path d="M4.66666 15.4249C4.52499 15.4249 4.37499 15.3749 4.25833 15.2749C3.36666 14.5166 2.56666 13.5833 1.88333 12.4999C0.999992 11.1249 0.999992 8.88328 1.88333 7.49994C3.91666 4.31661 6.87499 2.48328 9.99999 2.48328C11.8333 2.48328 13.6417 3.11661 15.225 4.30828C15.5 4.51661 15.5583 4.90828 15.35 5.18328C15.1417 5.45828 14.75 5.51661 14.475 5.30828C13.1083 4.27494 11.5583 3.73328 9.99999 3.73328C7.30832 3.73328 4.73333 5.34994 2.93333 8.17494C2.30833 9.14994 2.30833 10.8499 2.93333 11.8249C3.55833 12.7999 4.27499 13.6416 5.06666 14.3249C5.32499 14.5499 5.35833 14.9416 5.13332 15.2083C5.01666 15.3499 4.84166 15.4249 4.66666 15.4249Z" fill="#94A3B8"/>
<path d="M9.99879 17.5167C8.89046 17.5167 7.80712 17.2917 6.76546 16.85C6.44879 16.7167 6.29879 16.35 6.43212 16.0334C6.56546 15.7167 6.93212 15.5667 7.24879 15.7C8.13212 16.075 9.05712 16.2667 9.99046 16.2667C12.6821 16.2667 15.2571 14.65 17.0571 11.825C17.6821 10.85 17.6821 9.15004 17.0571 8.17504C16.7988 7.76671 16.5155 7.37504 16.2155 7.00837C15.9988 6.74171 16.0405 6.35004 16.3071 6.12504C16.5738 5.90837 16.9655 5.94171 17.1905 6.21671C17.5155 6.61671 17.8321 7.05004 18.1155 7.50004C18.9988 8.87504 18.9988 11.1167 18.1155 12.5C16.0821 15.6834 13.1238 17.5167 9.99879 17.5167Z" fill="#94A3B8"/>
<path d="M10.5762 13.5584C10.2846 13.5584 10.0179 13.35 9.95958 13.05C9.89291 12.7084 10.1179 12.3834 10.4596 12.325C11.3762 12.1584 12.1429 11.3917 12.3096 10.475C12.3762 10.1334 12.7012 9.91671 13.0429 9.97504C13.3846 10.0417 13.6096 10.3667 13.5429 10.7084C13.2762 12.15 12.1262 13.2917 10.6929 13.5584C10.6512 13.55 10.6179 13.5584 10.5762 13.5584Z" fill="#94A3B8"/>
<path d="M1.66784 18.9583C1.50951 18.9583 1.35117 18.8999 1.22617 18.7749C0.984505 18.5333 0.984505 18.1333 1.22617 17.8916L7.45117 11.6666C7.69284 11.4249 8.09284 11.4249 8.33451 11.6666C8.57617 11.9083 8.57617 12.3083 8.33451 12.5499L2.10951 18.7749C1.98451 18.8999 1.82617 18.9583 1.66784 18.9583Z" fill="#94A3B8"/>
<path d="M12.1073 8.51662C11.949 8.51662 11.7906 8.45828 11.6656 8.33328C11.424 8.09162 11.424 7.69162 11.6656 7.44995L17.8906 1.22495C18.1323 0.983285 18.5323 0.983285 18.774 1.22495C19.0156 1.46662 19.0156 1.86662 18.774 2.10828L12.549 8.33328C12.424 8.45828 12.2656 8.51662 12.1073 8.51662Z" fill="#94A3B8"/>
</svg>
